HIERARCHY
ROOT Hips
{
  OFFSET 5.84602e-005 68.8428 3.50346
  CHANNELS 6 Xposition Yposition Zposition Zrotation Xrotation Yrotation
  JOINT Spine
  {
    OFFSET 0 8.597 -4.6522
    CHANNELS 3 Zrotation Xrotation Yrotation
    JOINT Spine1
    {
      OFFSET 0 7.8454 0.4098
      CHANNELS 3 Zrotation Xrotation Yrotation
      JOINT Spine2
      {
        OFFSET 0 9.7078 -2.1609
        CHANNELS 3 Zrotation Xrotation Yrotation
        JOINT Neck
        {
          OFFSET 0 21.8761 -0.4549
          CHANNELS 3 Zrotation Xrotation Yrotation
          JOINT Head
          {
            OFFSET 0 12.3537 3.3602
            CHANNELS 3 Zrotation Xrotation Yrotation
            End Site
            {
              OFFSET 0.0001 18.9506 0.5657
            }
          }
        }
        JOINT LeftShoulder
        {
          OFFSET 2.2086 21.1115 7.2329
          CHANNELS 3 Zrotation Xrotation Yrotation
          JOINT LeftArm
          {
            OFFSET 13.1193 3.0282 -4.8998
            CHANNELS 3 Zrotation Xrotation Yrotation
            JOINT LeftForeArm
            {
              OFFSET 27.4081 -0.0973053 -0.2375
              CHANNELS 3 Zrotation Xrotation Yrotation
              JOINT LeftHand
              {
                OFFSET 22.8641 0.0662994 -0.1369
                CHANNELS 3 Zrotation Xrotation Yrotation
                JOINT LeftHandIndex1
                {
                  OFFSET 8.8614 0.775009 2.4612
                  CHANNELS 3 Zrotation Xrotation Yrotation
                  JOINT LeftHandIndex2
                  {
                    OFFSET 3.3146 -0.808304 0.5841
                    CHANNELS 3 Zrotation Xrotation Yrotation
                    JOINT LeftHandIndex3
                    {
                      OFFSET 2.2628 -0.552002 0.3989
                      CHANNELS 3 Zrotation Xrotation Yrotation
                      End Site
                      {
                        OFFSET 1.6102 -0.4807 0.2612
                      }
                    }
                  }
                }
                JOINT LeftHandMiddle1
                {
                  OFFSET 8.9937 0.895004 0.2143
                  CHANNELS 3 Zrotation Xrotation Yrotation
                  JOINT LeftHandMiddle2
                  {
                    OFFSET 4.0984 0.0113983 -0.0242
                    CHANNELS 3 Zrotation Xrotation Yrotation
                    JOINT LeftHandMiddle3
                    {
                      OFFSET 2.2716 0.00689697 -0.0138001
                      CHANNELS 3 Zrotation Xrotation Yrotation
                      End Site
                      {
                        OFFSET 2.0404 -0.1441 0.0027
                      }
                    }
                  }
                }
                JOINT LeftHandRing1
                {
                  OFFSET 8.5234 0.597198 -2.0164
                  CHANNELS 3 Zrotation Xrotation Yrotation
                  JOINT LeftHandRing2
                  {
                    OFFSET 3.7188 -0.188293 -0.2328
                    CHANNELS 3 Zrotation Xrotation Yrotation
                    JOINT LeftHandRing3
                    {
                      OFFSET 2.1191 -0.106598 -0.1332
                      CHANNELS 3 Zrotation Xrotation Yrotation
                      End Site
                      {
                        OFFSET 1.8737 -0.2304 -0.0886
                      }
                    }
                  }
                }
                JOINT LeftHandPinky1
                {
                  OFFSET 7.9094 -0.601089 -3.4825
                  CHANNELS 3 Zrotation Xrotation Yrotation
                  JOINT LeftHandPinky2
                  {
                    OFFSET 2.2874 -0.477005 -0.6314
                    CHANNELS 3 Zrotation Xrotation Yrotation
                    JOINT LeftHandPinky3
                    {
                      OFFSET 1.6774 -0.349396 -0.4633
                      CHANNELS 3 Zrotation Xrotation Yrotation
                      End Site
                      {
                        OFFSET 1.4888 -0.4091 -0.3416
                      }
                    }
                  }
                }
                JOINT LeftHandThumb1
                {
                  OFFSET 1.833 -1.3875 1.3896
                  CHANNELS 3 Zrotation Xrotation Yrotation
                  JOINT LeftHandThumb2
                  {
                    OFFSET 3.4129 -1.121 2.5732
                    CHANNELS 3 Zrotation Xrotation Yrotation
                    JOINT LeftHandThumb3
                    {
                      OFFSET 2.2474 -0.804199 1.6192
                      CHANNELS 3 Zrotation Xrotation Yrotation
                      End Site
                      {
                        OFFSET 1.6527 -0.5689 1.1317
                      }
                    }
                  }
                }
              }
            }
          }
        }
        JOINT RightShoulder
        {
          OFFSET -2.2086 21.1115 7.2329
          CHANNELS 3 Zrotation Xrotation Yrotation
          JOINT RightArm
          {
            OFFSET -13.1216 3.0287 -4.9007
            CHANNELS 3 Zrotation Xrotation Yrotation
            JOINT RightForeArm
            {
              OFFSET -27.4081 -0.0973053 -0.2375
              CHANNELS 3 Zrotation Xrotation Yrotation
              JOINT RightHand
              {
                OFFSET -22.8641 0.0664063 -0.1369
                CHANNELS 3 Zrotation Xrotation Yrotation
                JOINT RightHandIndex1
                {
                  OFFSET -8.8614 0.774994 2.4612
                  CHANNELS 3 Zrotation Xrotation Yrotation
                  JOINT RightHandIndex2
                  {
                    OFFSET -3.3146 -0.808304 0.5841
                    CHANNELS 3 Zrotation Xrotation Yrotation
                    JOINT RightHandIndex3
                    {
                      OFFSET -2.2628 -0.552002 0.3989
                      CHANNELS 3 Zrotation Xrotation Yrotation
                      End Site
                      {
                        OFFSET -1.6102 -0.4807 0.2612
                      }
                    }
                  }
                }
                JOINT RightHandMiddle1
                {
                  OFFSET -8.9937 0.894989 0.2143
                  CHANNELS 3 Zrotation Xrotation Yrotation
                  JOINT RightHandMiddle2
                  {
                    OFFSET -4.0984 0.0113983 -0.0242
                    CHANNELS 3 Zrotation Xrotation Yrotation
                    JOINT RightHandMiddle3
                    {
                      OFFSET -2.2716 0.00691223 -0.0138001
                      CHANNELS 3 Zrotation Xrotation Yrotation
                      End Site
                      {
                        OFFSET -2.0404 -0.1441 0.0027
                      }
                    }
                  }
                }
                JOINT RightHandRing1
                {
                  OFFSET -8.5234 0.597198 -2.0164
                  CHANNELS 3 Zrotation Xrotation Yrotation
                  JOINT RightHandRing2
                  {
                    OFFSET -3.7188 -0.188309 -0.2328
                    CHANNELS 3 Zrotation Xrotation Yrotation
                    JOINT RightHandRing3
                    {
                      OFFSET -2.1191 -0.106598 -0.1332
                      CHANNELS 3 Zrotation Xrotation Yrotation
                      End Site
                      {
                        OFFSET -1.8737 -0.2304 -0.0886
                      }
                    }
                  }
                }
                JOINT RightHandPinky1
                {
                  OFFSET -7.9094 -0.601105 -3.4825
                  CHANNELS 3 Zrotation Xrotation Yrotation
                  JOINT RightHandPinky2
                  {
                    OFFSET -2.2874 -0.477005 -0.6314
                    CHANNELS 3 Zrotation Xrotation Yrotation
                    JOINT RightHandPinky3
                    {
                      OFFSET -1.6774 -0.349396 -0.4633
                      CHANNELS 3 Zrotation Xrotation Yrotation
                      End Site
                      {
                        OFFSET -1.4888 -0.4091 -0.3416
                      }
                    }
                  }
                }
                JOINT RightHandThumb1
                {
                  OFFSET -1.833 -1.38751 1.3896
                  CHANNELS 3 Zrotation Xrotation Yrotation
                  JOINT RightHandThumb2
                  {
                    OFFSET -3.41299 -1.12099 2.5732
                    CHANNELS 3 Zrotation Xrotation Yrotation
                    JOINT RightHandThumb3
                    {
                      OFFSET -2.24741 -0.804108 1.6192
                      CHANNELS 3 Zrotation Xrotation Yrotation
                      End Site
                      {
                        OFFSET -1.6527 -0.5689 1.1317
                      }
                    }
                  }
                }
              }
            }
          }
        }
      }
    }
  }
  JOINT RightUpLeg
  {
    OFFSET -9.1966 3.8861 -0.7581
    CHANNELS 3 Zrotation Xrotation Yrotation
    JOINT RightLeg
    {
      OFFSET -0.7359 -41.0265 0
      CHANNELS 3 Zrotation Xrotation Yrotation
      JOINT RightFoot
      {
        OFFSET 0 -40.2855 0
        CHANNELS 3 Zrotation Xrotation Yrotation
        JOINT RightToeBase
        {
          OFFSET 0 -5.6122 11.7359
          CHANNELS 3 Zrotation Xrotation Yrotation
          End Site
          {
            OFFSET 0 0 7.8731
          }
        }
      }
    }
  }
  JOINT LeftUpLeg
  {
    OFFSET 9.1965 3.8864 -0.7581
    CHANNELS 3 Zrotation Xrotation Yrotation
    JOINT LeftLeg
    {
      OFFSET 0.7359 -41.0268 0
      CHANNELS 3 Zrotation Xrotation Yrotation
      JOINT LeftFoot
      {
        OFFSET 0 -40.2855 0
        CHANNELS 3 Zrotation Xrotation Yrotation
        JOINT LeftToeBase
        {
          OFFSET 0 -5.6122 11.7359
          CHANNELS 3 Zrotation Xrotation Yrotation
          End Site
          {
            OFFSET 0 0 7.8731
          }
        }
      }
    }
  }
}
MOTION
Frames:	6
Frame Time:	0.0333333
-2.54953 1.88595 12.0579 -4.77731e-015 17.7006 180 -0.435164 3.83337 0.127653 -0.881878 7.66565 0.285521 -0.881879 7.66565 0.285521 -1.6328e-005 -0.117951 4.99798e-006 0.0499571 -0.0902745 3.96054e-005 -16.8647 -37.5981 15.3331 -44.1179 6.23297 -6.70614 -58.8973 52.4361 -42.8074 25.8397 29.7161 10.462 1.59028e-015 2.26118e-015 -3.97569e-016 -5.16393e-032 1.4884e-014 1.98785e-016 1.59028e-015 8.07563e-015 7.95139e-016 1.59028e-015 2.26118e-015 -3.97569e-016 -0.01462 -8.87918e-005 -2.55966e-007 -1.59028e-015 -1.01877e-015 7.95139e-016 1.59028e-015 2.26118e-015 -3.97569e-016 -0.0187398 -0.00117064 6.30445e-005 -1.59028e-015 2.48481e-017 1.59028e-015 1.59028e-015 2.26118e-015 -3.97569e-016 -0.01227 -0.00325123 0.000680602 -1.27934e-031 5.26779e-015 1.39149e-015 1.59028e-015 2.26118e-015 -3.97569e-016 -5.16393e-032 1.4884e-014 1.98785e-016 1.59028e-015 8.07563e-015 7.95139e-016 2.67624 -38.2229 -21.6607 41.1374 5.61975 7.19429 48.1246 46.4564 37.2388 -17.0938 8.64881 8.03754 -1.59028e-015 6.60648e-015 -1.55301e-015 3.18055e-015 2.45375e-016 1.2424e-017 -1.59028e-015 1.02498e-016 -1.55301e-015 -1.59028e-015 6.60648e-015 -1.55301e-015 0.0149825 -9.4644e-005 7.31422e-006 -1.59028e-015 1.32502e-014 -2.31087e-015 -1.59028e-015 6.60648e-015 -1.55301e-015 0.0190247 -0.00119785 -5.7628e-005 -1.59028e-015 -1.28589e-015 -7.57867e-016 -1.59028e-015 6.60648e-015 -1.55301e-015 0.0122642 -0.00324156 -0.000671798 3.18055e-015 9.10061e-015 1.78906e-015 -1.59028e-015 6.60648e-015 -1.55301e-015 3.18055e-015 2.45375e-016 1.2424e-017 -1.59028e-015 1.02498e-016 -1.55301e-015 -89.3852 -34.7029 -141.448 -171.286 58.1439 167.056 28.8186 30.8678 -6.63298 -7.33018e-016 -9.93923e-017 -0 93.3406 -25.097 141.218 170.811 59.6293 -166.569 -27.1668 41.7857 4.88506 -5.71506e-016 4.96962e-017 -1.59028e-015 
-2.5497 1.85659 12.1696 -4.81777e-015 17.4003 180 -0.4342 3.92909 0.129818 -0.880462 7.85707 0.290589 -0.880463 7.85707 0.290589 -1.3745e-005 -0.117609 3.9617e-006 0.049707 -0.0898228 3.88233e-005 -16.8201 -37.9668 15.1387 -44.1179 6.23296 -6.70614 -59.0453 52.5243 -42.8935 26.1461 29.7554 10.2601 4.77083e-015 2.38542e-015 2.38542e-015 6.36111e-015 2.70844e-015 7.95139e-016 7.95139e-015 2.90723e-015 7.95139e-016 4.77083e-015 2.38542e-015 2.38542e-015 -0.0146171 -8.40635e-005 2.40972e-006 1.59028e-015 -5.71506e-016 2.18663e-015 4.77083e-015 2.38542e-015 2.38542e-015 -0.0187561 -0.00118046 5.1083e-005 3.18055e-015 1.98785e-015 1.59028e-015 4.77083e-015 2.38542e-015 2.38542e-015 -0.0122736 -0.00324755 0.000680294 3.18055e-015 -7.92654e-015 3.97569e-016 4.77083e-015 2.38542e-015 2.38542e-015 6.36111e-015 2.70844e-015 7.95139e-016 7.95139e-015 2.90723e-015 7.95139e-016 2.35074 -38.506 -21.6995 41.2586 5.63022 7.22707 48.2558 46.5255 37.3109 -17.4538 8.49874 8.27771 -1.59028e-015 -7.05064e-015 5.46658e-016 1.25535e-032 -5.31128e-016 1.35422e-015 3.18055e-015 -3.85766e-015 1.3418e-015 -1.59028e-015 -7.05064e-015 5.46658e-016 0.014982 -9.08647e-005 1.89142e-006 -1.59028e-015 -4.22107e-015 -3.97569e-016 -1.59028e-015 -7.05064e-015 5.46658e-016 0.0190158 -0.00119367 -5.83515e-005 -4.77083e-015 5.3206e-015 -6.58474e-016 -1.59028e-015 -7.05064e-015 5.46658e-016 0.0122627 -0.00325736 -0.000674089 1.27222e-014 -1.28837e-014 1.63997e-015 -1.59028e-015 -7.05064e-015 5.46658e-016 1.25535e-032 -5.31128e-016 1.35422e-015 3.18055e-015 -3.85766e-015 1.3418e-015 -89.6138 -34.7717 -141.865 -171.287 58.1404 167.059 28.8193 30.8668 -6.63197 1.6019e-007 -1.23307e-006 -1.16135e-006 93.5082 -25.1785 141.595 170.812 59.627 -166.57 -27.2857 41.8065 5.0522 -9.18151e-010 2.42636e-008 -1.19973e-006 
-2.54987 1.82738 12.2814 -4.85809e-015 17.1 180 -0.433234 4.02478 0.131984 -0.879054 8.04843 0.295659 -0.879054 8.04843 0.295659 -1.67757e-005 -0.117009 4.50661e-006 0.0494575 -0.0893709 3.81049e-005 -16.7768 -38.3355 14.9437 -44.1179 6.23296 -6.70615 -59.1935 52.6126 -42.9794 26.4528 29.7937 10.0579 -3.18055e-015 -5.19325e-015 -1.98785e-016 -3.18055e-015 -1.93815e-015 -9.93923e-016 -4.77083e-015 -1.17034e-014 -3.97569e-016 -3.18055e-015 -5.19325e-015 -1.98785e-016 -0.0146044 -9.04045e-005 3.70524e-006 -2.79318e-032 4.02539e-015 3.97569e-016 -3.18055e-015 -5.19325e-015 -1.98785e-016 -0.0187411 -0.00117803 5.1559e-005 -1.59314e-031 -4.17448e-015 -2.18663e-015 -3.18055e-015 -5.19325e-015 -1.98785e-016 -0.0122774 -0.00325209 0.000673827 4.77083e-015 -4.79568e-015 -0 -3.18055e-015 -5.19325e-015 -1.98785e-016 -3.18055e-015 -1.93815e-015 -9.93923e-016 -4.77083e-015 -1.17034e-014 -3.97569e-016 2.02372 -38.7889 -21.7405 41.3797 5.64075 7.25982 48.387 46.5947 37.3828 -17.8129 8.34717 8.51681 -3.18055e-015 -1.29303e-014 -6.4605e-016 -6.36111e-015 -9.14409e-015 1.11816e-016 -7.95139e-015 6.95746e-016 -3.10601e-015 -3.18055e-015 -1.29303e-014 -6.4605e-016 0.0149542 -8.53776e-005 -5.32854e-006 -4.77083e-015 -1.03306e-014 5.8393e-016 -3.18055e-015 -1.29303e-014 -6.4605e-016 0.0189796 -0.00119272 -6.58567e-005 4.99811e-033 -5.62188e-016 5.09386e-016 -3.18055e-015 -1.29303e-014 -6.4605e-016 0.01226 -0.00324341 -0.00068471 -4.77083e-015 5.20257e-015 2.98177e-016 -3.18055e-015 -1.29303e-014 -6.4605e-016 -6.36111e-015 -9.14409e-015 1.11816e-016 -7.95139e-015 6.95746e-016 -3.10601e-015 -89.8433 -34.8391 -142.283 -171.288 58.1368 167.062 28.8199 30.8658 -6.63093 -1.87843e-007 -7.56533e-007 -1.76037e-006 93.6765 -25.2587 141.973 170.813 59.6247 -166.571 -27.4047 41.8271 5.21944 1.06847e-015 0 4.77083e-015 
-2.55004 1.79834 12.3934 -4.89828e-015 16.7997 180 -0.432266 4.12045 0.13415 -0.877652 8.23971 0.300729 -0.877652 8.23972 0.300729 -1.65743e-005 -0.116081 4.08967e-006 0.0492078 -0.0889198 3.83663e-005 -16.7349 -38.7044 14.7482 -44.1179 6.23295 -6.70615 -59.3416 52.701 -43.0651 26.7597 29.8311 9.85535 -4.23299e-006 -2.5834e-007 2.27734e-006 -1.98733e-006 -2.24567e-006 9.42148e-007 2.5834e-007 -4.23299e-006 -3.93046e-007 -4.23299e-006 -2.5834e-007 2.27734e-006 -0.0145896 -8.97318e-005 -7.11884e-007 2.5863e-007 -4.23294e-006 -3.93585e-007 -4.23299e-006 -2.5834e-007 2.27734e-006 -0.0187633 -0.00117447 5.55756e-005 2.58707e-007 -4.23291e-006 -3.93743e-007 -4.23299e-006 -2.5834e-007 2.27734e-006 -0.012265 -0.00325127 0.000681659 1.20013e-006 -2.30914e-006 -1.45905e-006 -4.23299e-006 -2.5834e-007 2.27734e-006 -1.98733e-006 -2.24567e-006 9.42148e-007 2.5834e-007 -4.23299e-006 -3.93046e-007 1.69517 -39.0716 -21.7837 41.5009 5.65136 7.29255 48.5182 46.664 37.4546 -18.1713 8.19415 8.75482 1.59028e-015 9.29629e-015 -4.09993e-016 1.59028e-015 5.97907e-015 -3.47873e-016 -1.33624e-032 -3.85145e-016 -1.98785e-015 1.59028e-015 9.29629e-015 -4.09993e-016 0.0150045 -9.19361e-005 1.42871e-006 3.18055e-015 7.30534e-015 -7.45443e-016 1.59028e-015 9.29629e-015 -4.09993e-016 0.0190053 -0.00119358 -6.86524e-005 4.77083e-015 -1.25887e-014 -7.0817e-016 1.59028e-015 9.29629e-015 -4.09993e-016 0.0122409 -0.00324076 -0.000674374 -3.18055e-015 -1.07965e-014 -4.47266e-016 1.59028e-015 9.29629e-015 -4.09993e-016 1.59028e-015 5.97907e-015 -3.47873e-016 -1.33624e-032 -3.85145e-016 -1.98785e-015 -90.0736 -34.9052 -142.701 -171.289 58.1333 167.065 28.8206 30.8648 -6.62996 9.30911e-009 -3.54624e-008 -1.19732e-006 93.8455 -25.3379 142.351 170.814 59.6224 -166.572 -27.5239 41.8474 5.38681 -1.67725e-016 -1.49089e-016 3.18055e-015 
-2.55021 1.76945 12.5055 -4.93835e-015 16.4994 180 -0.431297 4.21603 0.136318 -0.87626 8.43094 0.305802 -0.87626 8.43093 0.305801 3.90473e-006 -0.115965 -3.81545e-007 0.0489577 -0.0884674 3.77476e-005 -16.6945 -39.0733 14.5519 -44.1179 6.23296 -6.70614 -59.4899 52.7896 -43.1506 27.0669 29.8675 9.65254 1.59028e-015 -3.2054e-015 -1.98785e-016 1.59028e-015 -9.39258e-015 -3.37934e-015 1.59028e-015 -3.37934e-015 -0 1.59028e-015 -3.2054e-015 -1.98785e-016 -0.0146096 -8.66691e-005 8.19524e-006 -9.41595e-007 -1.92458e-006 1.05985e-006 1.59028e-015 -3.2054e-015 -1.98785e-016 -0.0187442 -0.00117708 5.90194e-005 -4.77083e-015 -2.03754e-015 7.95139e-016 1.59028e-015 -3.2054e-015 -1.98785e-016 -0.0122761 -0.00324973 0.000673905 -6.65534e-032 -4.79568e-015 -7.95139e-016 1.59028e-015 -3.2054e-015 -1.98785e-016 1.59028e-015 -9.39258e-015 -3.37934e-015 1.59028e-015 -3.37934e-015 -0 1.36505 -39.3541 -21.8292 41.622 5.66201 7.32526 48.6495 46.7334 37.5263 -18.5288 8.03967 8.99177 1.59028e-015 -2.7923e-015 -1.63997e-015 -1.59028e-015 3.8732e-015 -8.44835e-016 -4.77083e-015 -2.64011e-015 6.95746e-016 1.59028e-015 -2.7923e-015 -1.63997e-015 0.0149895 -9.06867e-005 -1.88796e-006 1.59028e-015 7.45443e-016 1.09332e-015 1.59028e-015 -2.7923e-015 -1.63997e-015 0.0190101 -0.00119423 -6.57376e-005 -1.59028e-015 3.31411e-015 4.96962e-017 1.59028e-015 -2.7923e-015 -1.63997e-015 0.0122709 -0.00324677 -0.000684197 1.27222e-014 -6.33626e-016 2.73329e-015 1.59028e-015 -2.7923e-015 -1.63997e-015 -1.59028e-015 3.8732e-015 -8.44835e-016 -4.77083e-015 -2.64011e-015 6.95746e-016 -90.3046 -34.9698 -143.12 -171.291 58.1297 167.067 28.8212 30.8638 -6.62897 1.50996e-007 -1.19738e-006 3.527e-008 94.0151 -25.4163 142.73 170.815 59.6201 -166.573 -27.6431 41.8675 5.55431 9.16273e-017 5.28022e-017 1.59028e-015 
-2.55038 1.74074 12.6178 -4.97828e-015 16.1991 180 -0.430327 4.31158 0.138485 -0.874876 8.62203 0.310873 -0.874876 8.62203 0.310873 -3.22252e-005 -0.114743 8.42496e-006 0.0487081 -0.0880153 3.78668e-005 -16.6554 -39.4422 14.355 -44.1179 6.23297 -6.70613 -59.6383 52.8783 -43.2359 27.3743 29.9029 9.44944 -4.91392e-032 1.41634e-015 1.98785e-015 -2.58627e-032 4.96962e-015 2.98177e-016 1.59028e-015 -1.46604e-015 2.38542e-015 -4.91392e-032 1.41634e-015 1.98785e-015 -0.0146049 -8.83625e-005 4.2567e-006 -4.77083e-015 -7.30534e-015 -3.97569e-016 -4.91392e-032 1.41634e-015 1.98785e-015 -0.0187748 -0.00117756 5.679e-005 9.41184e-007 1.92488e-006 -1.0542e-006 -4.91392e-032 1.41634e-015 1.98785e-015 -0.0122646 -0.00324951 0.00068177 4.77083e-015 -8.94531e-016 -1.49089e-015 -4.91392e-032 1.41634e-015 1.98785e-015 -2.58627e-032 4.96962e-015 2.98177e-016 1.59028e-015 -1.46604e-015 2.38542e-015 1.03334 -39.6363 -21.877 41.7431 5.67277 7.35795 48.7809 46.8029 37.5978 -18.8855 7.88375 9.22759 -2.22987e-006 -2.0111e-006 1.33207e-006 2.18775e-007 4.24097e-006 -3.98476e-007 -2.22987e-006 -2.0111e-006 1.33207e-006 -2.22987e-006 -2.0111e-006 1.33207e-006 0.0149855 -8.7024e-005 -5.60002e-007 -2.22999e-006 -2.01092e-006 1.33234e-006 -2.22987e-006 -2.0111e-006 1.33207e-006 0.0189909 -0.00118403 -6.24183e-005 -2.23001e-006 -2.01087e-006 1.33243e-006 -2.22987e-006 -2.0111e-006 1.33207e-006 0.0122884 -0.00325129 -0.000676578 -2.22992e-006 -2.01094e-006 1.33236e-006 -2.22987e-006 -2.0111e-006 1.33207e-006 2.18775e-007 4.24097e-006 -3.98476e-007 -2.22987e-006 -2.0111e-006 1.33207e-006 -90.5363 -35.033 -143.539 -171.292 58.1261 167.07 28.8219 30.8629 -6.62797 1.07409e-008 -3.50817e-008 -1.19743e-006 94.1854 -25.4933 143.109 170.816 59.6177 -166.574 -27.7625 41.8873 5.72191 -4.78326e-016 0 -1.59028e-015 
